<svg width="24" height="24" viewBox="0 0 24 24" fill="none" xmlns="http://www.w3.org/2000/svg">
<path d="M22.6748 15.9329L17.7037 10.9729C17.8077 10.4663 17.8593 9.95031 17.8577 9.43315C17.8573 8.01513 17.4994 6.62009 16.8172 5.37698C16.135 4.13387 15.1503 3.0828 13.9544 2.32093C12.7584 1.55907 11.3897 1.11099 9.97471 1.01811C8.55974 0.92524 7.14418 1.19057 5.85889 1.78958C5.69605 1.86396 5.55384 1.97698 5.44459 2.11881C5.33534 2.26064 5.26237 2.42699 5.23201 2.60342C5.20177 2.77762 5.21397 2.95653 5.26757 3.12501C5.32118 3.29349 5.41461 3.44655 5.53995 3.57124L10.3241 8.34435L8.34443 10.324L3.57132 5.53988C3.44558 5.41648 3.29203 5.3251 3.12361 5.27343C2.95518 5.22175 2.77681 5.21129 2.6035 5.24293C2.42817 5.27218 2.26255 5.34349 2.12081 5.45075C1.97907 5.55801 1.86544 5.69803 1.78965 5.85882C1.18864 7.14833 0.923544 8.56891 1.01902 9.9884C1.11449 11.4079 1.56744 12.7802 2.33571 13.9776C3.10399 15.175 4.16265 16.1587 5.41319 16.837C6.66374 17.5154 8.06555 17.8665 9.48822 17.8576C10.0054 17.8592 10.5213 17.8076 11.0279 17.7036L15.988 22.6747C16.0902 22.7778 16.2119 22.8596 16.3459 22.9154C16.4799 22.9713 16.6237 23 16.7689 23C16.914 23 17.0578 22.9713 17.1918 22.9154C17.3258 22.8596 17.4475 22.7778 17.5497 22.6747C17.6528 22.5724 17.7346 22.4508 17.7905 22.3168C17.8463 22.1828 17.875 22.039 17.875 21.8938C17.875 21.7486 17.8463 21.6049 17.7905 21.4709C17.7346 21.3369 17.6528 21.2152 17.5497 21.113L12.1607 15.724C12.026 15.5902 11.859 15.4936 11.676 15.4435C11.4929 15.3933 11.2999 15.3915 11.1159 15.438C10.5849 15.5802 10.0379 15.6542 9.48822 15.658C8.66563 15.6652 7.84973 15.5097 7.08752 15.2002C6.32531 14.8908 5.63187 14.4336 5.04712 13.855C4.46238 13.2764 3.9979 12.5878 3.68044 11.8289C3.36298 11.07 3.19881 10.2558 3.19739 9.43315C3.19597 9.06474 3.2254 8.69686 3.28537 8.33336L7.59657 12.6556C7.69881 12.7586 7.82045 12.8405 7.95447 12.8963C8.08849 12.9521 8.23224 12.9809 8.37743 12.9809C8.52261 12.9809 8.66636 12.9521 8.80038 12.8963C8.9344 12.8405 9.05604 12.7586 9.15828 12.6556L12.6556 9.12521C12.8539 8.92013 12.9647 8.64607 12.9647 8.36085C12.9647 8.07563 12.8539 7.80157 12.6556 7.59649L8.37743 3.2853C8.741 3.22592 9.10883 3.19649 9.47722 3.19731C11.1292 3.20023 12.7124 3.8585 13.8795 5.02763C15.0466 6.19676 15.7021 7.78121 15.7021 9.43315C15.6982 9.98286 15.6243 10.5298 15.4821 11.0608C15.4355 11.2449 15.4374 11.4378 15.4875 11.6209C15.5376 11.804 15.6343 11.971 15.768 12.1057L21.157 17.4946C21.3641 17.7017 21.645 17.8181 21.9379 17.8181C22.2308 17.8181 22.5117 17.7017 22.7188 17.4946C22.9258 17.2876 23.0422 17.0067 23.0422 16.7138C23.0422 16.4209 22.9258 16.14 22.7188 15.9329H22.6748Z" fill="#2D3274"/>
</svg>
